<?xml version="1.0" standalone="no"?>
<svg viewBox="0 0 200 200" xmlns="http://www.w3.org/2000/svg">
  <path fill="#4C1CE9" d="M31.8,-56.7C40.9,-49.9,47.6,-40.6,57.8,-30.8C67.9,-20.9,81.5,-10.5,82.8,0.7C84.1,11.9,73.1,23.9,64.4,36.3C55.7,48.7,49.3,61.5,38.9,71C28.6,80.5,14.3,86.7,-0.4,87.5C-15.2,88.2,-30.3,83.5,-39.7,73.4C-49.2,63.4,-52.9,48,-60.3,34.9C-67.7,21.8,-78.8,10.9,-78.4,0.2C-78,-10.4,-66.1,-20.9,-58.9,-34.3C-51.6,-47.7,-49,-64,-40,-70.8C-30.9,-77.6,-15.5,-74.9,-2,-71.4C11.4,-67.8,22.8,-63.5,31.8,-56.7Z" transform="translate(100 100)" />
</svg>
