<?xml version="1.0" standalone="no"?>
<svg viewBox="0 0 200 200" xmlns="http://www.w3.org/2000/svg">
  <path fill="#4C1CE9" d="M32.6,-58C45.6,-49,61.7,-47,64.7,-38.5C67.6,-29.9,57.4,-15,55.9,-0.9C54.3,13.2,61.4,26.4,58,34C54.5,41.6,40.4,43.6,29,50.4C17.6,57.1,8.8,68.6,-0.5,69.4C-9.8,70.3,-19.6,60.7,-26.4,51.2C-33.2,41.8,-37,32.7,-38.5,24.2C-40,15.7,-39.1,7.9,-38.8,0.2C-38.5,-7.5,-38.8,-15.1,-38.1,-24.9C-37.4,-34.7,-35.7,-46.8,-29.2,-59.6C-22.7,-72.3,-11.3,-85.7,-0.8,-84.4C9.8,-83.1,19.7,-67.1,32.6,-58Z" transform="translate(100 100)" />
</svg>
